{
    "asset" : {
        "generator" : "Khronos glTF Blender I/O v3.4.50",
        "version" : "2.0"
    },
    "scene" : 0,
    "scenes" : [
        {
            "name" : "Scene",
            "nodes" : [
                0
            ]
        }
    ],
    "nodes" : [
        {
            "mesh" : 0,
            "name" : "Flamingo_Flamingo_0",
            "scale" : [
                0.05000000074505806,
                0.05000000074505806,
                0.05000000074505806
            ]
        }
    ],
    "materials" : [
        {
            "doubleSided" : true,
            "name" : "Flamingo",
            "normalTexture" : {
                "index" : 0
            },
            "occlusionTexture" : {
                "index" : 1
            },
            "pbrMetallicRoughness" : {
                "baseColorTexture" : {
                    "index" : 2
                },
                "metallicRoughnessTexture" : {
                    "index" : 1
                }
            }
        }
    ],
    "meshes" : [
        {
            "name" : "Flamingo_Flamingo_0",
            "primitives" : [
                {
                    "attributes" : {
                        "COLOR_0" : 0,
                        "POSITION" : 1,
                        "TEXCOORD_0" : 2,
                        "NORMAL" : 3
                    },
                    "indices" : 4,
                    "material" : 0
                }
            ]
        }
    ],
    "textures" : [
        {
            "sampler" : 0,
            "source" : 0
        },
        {
            "sampler" : 0,
            "source" : 1
        },
        {
            "sampler" : 0,
            "source" : 2
        }
    ],
    "images" : [
        {
            "bufferView" : 5,
            "mimeType" : "image/png",
            "name" : "Image_12"
        },
        {
            "bufferView" : 6,
            "mimeType" : "image/png",
            "name" : "Image_11"
        },
        {
            "bufferView" : 7,
            "mimeType" : "image/png",
            "name" : "Image_10"
        }
    ],
    "accessors" : [
        {
            "bufferView" : 0,
            "componentType" : 5123,
            "count" : 6584,
            "normalized" : true,
            "type" : "VEC4"
        },
        {
            "bufferView" : 1,
            "componentType" : 5126,
            "count" : 6584,
            "max" : [
                50.802085876464844,
                36.58167266845703,
                48.04791259765625
            ],
            "min" : [
                -50.802085876464844,
                -31.982046127319336,
                -50.099365234375
            ],
            "type" : "VEC3"
        },
        {
            "bufferView" : 2,
            "componentType" : 5126,
            "count" : 6584,
            "type" : "VEC2"
        },
        {
            "bufferView" : 3,
            "componentType" : 5126,
            "count" : 6584,
            "type" : "VEC3"
        },
        {
            "bufferView" : 4,
            "componentType" : 5123,
            "count" : 37056,
            "type" : "SCALAR"
        }
    ],
    "bufferViews" : [
        {
            "buffer" : 0,
            "byteLength" : 52672,
            "byteOffset" : 0,
            "target" : 34962
        },
        {
            "buffer" : 0,
            "byteLength" : 79008,
            "byteOffset" : 52672,
            "target" : 34962
        },
        {
            "buffer" : 0,
            "byteLength" : 52672,
            "byteOffset" : 131680,
            "target" : 34962
        },
        {
            "buffer" : 0,
            "byteLength" : 79008,
            "byteOffset" : 184352,
            "target" : 34962
        },
        {
            "buffer" : 0,
            "byteLength" : 74112,
            "byteOffset" : 263360,
            "target" : 34963
        },
        {
            "buffer" : 0,
            "byteLength" : 1155514,
            "byteOffset" : 337472
        },
        {
            "buffer" : 0,
            "byteLength" : 876913,
            "byteOffset" : 1492988
        },
        {
            "buffer" : 0,
            "byteLength" : 26463,
            "byteOffset" : 2369904
        }
    ],
    "samplers" : [
        {
            "magFilter" : 9729,
            "minFilter" : 9987
        }
    ],
    "buffers" : [
        {
            "byteLength" : 2396368,
            "uri" : "data:application/octet-stream;base64,"
        }
    ]
}
